<mxfile host="app.diagrams.net" modified="2021-12-01T09:42:01.764Z" agent="5.0 (Windows NT 10.0; Win64; x64) AppleWebKit/537.36 (KHTML, like Gecko) Chrome/96.0.4664.55 Safari/537.36 Edg/96.0.1054.34" etag="OMexeEGrRd0to7OpWTaB" version="15.8.7" type="github">
  <diagram id="u8lQeyHK2CI5gsenDK-O" name="Page-1">
    <mxGraphModel dx="1038" dy="583" grid="1" gridSize="10" guides="1" tooltips="1" connect="1" arrows="1" fold="1" page="1" pageScale="1" pageWidth="827" pageHeight="1169" math="0" shadow="0">
      <root>
        <mxCell id="0" />
        <mxCell id="1" parent="0" />
        <mxCell id="YOo31E4RZwj-w35EvqCA-4" style="edgeStyle=orthogonalEdgeStyle;rounded=0;orthogonalLoop=1;jettySize=auto;html=1;fontSize=16;" edge="1" parent="1" source="YOo31E4RZwj-w35EvqCA-2" target="YOo31E4RZwj-w35EvqCA-3">
          <mxGeometry relative="1" as="geometry" />
        </mxCell>
        <mxCell id="YOo31E4RZwj-w35EvqCA-2" value="&lt;font style=&quot;font-size: 16px&quot;&gt;rpc call&lt;/font&gt;" style="rounded=0;whiteSpace=wrap;html=1;" vertex="1" parent="1">
          <mxGeometry x="110" y="140" width="100" height="40" as="geometry" />
        </mxCell>
        <mxCell id="YOo31E4RZwj-w35EvqCA-7" style="edgeStyle=orthogonalEdgeStyle;rounded=0;orthogonalLoop=1;jettySize=auto;html=1;fontSize=16;" edge="1" parent="1" source="YOo31E4RZwj-w35EvqCA-3" target="YOo31E4RZwj-w35EvqCA-5">
          <mxGeometry relative="1" as="geometry" />
        </mxCell>
        <mxCell id="YOo31E4RZwj-w35EvqCA-3" value="&lt;span style=&quot;font-size: 16px&quot;&gt;protobuf pack&lt;/span&gt;" style="rounded=0;whiteSpace=wrap;html=1;" vertex="1" parent="1">
          <mxGeometry x="280" y="140" width="110" height="40" as="geometry" />
        </mxCell>
        <mxCell id="YOo31E4RZwj-w35EvqCA-8" style="edgeStyle=orthogonalEdgeStyle;rounded=0;orthogonalLoop=1;jettySize=auto;html=1;fontSize=16;" edge="1" parent="1" source="YOo31E4RZwj-w35EvqCA-5" target="YOo31E4RZwj-w35EvqCA-6">
          <mxGeometry relative="1" as="geometry" />
        </mxCell>
        <mxCell id="YOo31E4RZwj-w35EvqCA-5" value="&lt;span style=&quot;font-size: 16px&quot;&gt;protobuf unpack&lt;/span&gt;" style="rounded=0;whiteSpace=wrap;html=1;" vertex="1" parent="1">
          <mxGeometry x="490" y="140" width="120" height="40" as="geometry" />
        </mxCell>
        <mxCell id="YOo31E4RZwj-w35EvqCA-6" value="&lt;span style=&quot;font-size: 16px&quot;&gt;on rpc call&lt;/span&gt;" style="rounded=0;whiteSpace=wrap;html=1;" vertex="1" parent="1">
          <mxGeometry x="670" y="140" width="110" height="40" as="geometry" />
        </mxCell>
        <mxCell id="YOo31E4RZwj-w35EvqCA-10" value="&lt;span style=&quot;font-size: 16px&quot;&gt;on rpc response&lt;/span&gt;" style="rounded=0;whiteSpace=wrap;html=1;" vertex="1" parent="1">
          <mxGeometry x="80" y="230" width="130" height="40" as="geometry" />
        </mxCell>
        <mxCell id="YOo31E4RZwj-w35EvqCA-18" style="edgeStyle=orthogonalEdgeStyle;rounded=0;orthogonalLoop=1;jettySize=auto;html=1;fontSize=16;" edge="1" parent="1" source="YOo31E4RZwj-w35EvqCA-12" target="YOo31E4RZwj-w35EvqCA-10">
          <mxGeometry relative="1" as="geometry" />
        </mxCell>
        <mxCell id="YOo31E4RZwj-w35EvqCA-12" value="&lt;span style=&quot;font-size: 16px&quot;&gt;protobuf unpack&lt;/span&gt;" style="rounded=0;whiteSpace=wrap;html=1;" vertex="1" parent="1">
          <mxGeometry x="280" y="230" width="120" height="40" as="geometry" />
        </mxCell>
        <mxCell id="YOo31E4RZwj-w35EvqCA-17" style="edgeStyle=orthogonalEdgeStyle;rounded=0;orthogonalLoop=1;jettySize=auto;html=1;entryX=1;entryY=0.5;entryDx=0;entryDy=0;fontSize=16;" edge="1" parent="1" source="YOo31E4RZwj-w35EvqCA-14" target="YOo31E4RZwj-w35EvqCA-12">
          <mxGeometry relative="1" as="geometry" />
        </mxCell>
        <mxCell id="YOo31E4RZwj-w35EvqCA-14" value="&lt;span style=&quot;font-size: 16px&quot;&gt;protobuf pack&lt;/span&gt;" style="rounded=0;whiteSpace=wrap;html=1;" vertex="1" parent="1">
          <mxGeometry x="490" y="230" width="110" height="40" as="geometry" />
        </mxCell>
        <mxCell id="YOo31E4RZwj-w35EvqCA-16" style="edgeStyle=orthogonalEdgeStyle;rounded=0;orthogonalLoop=1;jettySize=auto;html=1;fontSize=16;" edge="1" parent="1" source="YOo31E4RZwj-w35EvqCA-15" target="YOo31E4RZwj-w35EvqCA-14">
          <mxGeometry relative="1" as="geometry" />
        </mxCell>
        <mxCell id="YOo31E4RZwj-w35EvqCA-15" value="&lt;span style=&quot;font-size: 16px&quot;&gt;rpc response&lt;/span&gt;" style="rounded=0;whiteSpace=wrap;html=1;" vertex="1" parent="1">
          <mxGeometry x="670" y="230" width="110" height="40" as="geometry" />
        </mxCell>
      </root>
    </mxGraphModel>
  </diagram>
</mxfile>
